<svg xmlns="http://www.w3.org/2000/svg" width="19" height="20" viewBox="0 0 19 20">
    <path fill="#FFF" fill-rule="nonzero" d="M12.77 18.334c.199.001.4-.01.6-.032 2.004-.221 3.404-1.511 3.23-2.79-.174-1.277-1.88-2.224-3.883-2.003-1.093.121-2.049.57-2.643 1.205l-.567.606-.699-.48C6.9 13.529 5.351 11.332 4.672 9.065l-.239-.797.883-.22c1.207-.303 2.143-1.6 2.143-3.16 0-1.817-1.252-3.226-2.682-3.226-1.14 0-2.2.903-2.558 2.263-.267.86-.373 1.749-.373 2.914 0 5.715 5.28 11.498 10.827 11.499l.097-.004zM4.777 0C7.33 0 9.305 2.224 9.305 4.888c0 1.923-1.033 3.643-2.612 4.434.562 1.427 1.51 2.777 2.631 3.732.857-.637 1.963-1.061 3.168-1.194 2.937-.325 5.63 1.17 5.94 3.45.311 2.28-1.9 4.317-4.836 4.642-.28.03-.559.045-.758.042-.077.005-.077.005-.164.006C6.019 20 0 13.408 0 6.839c0-1.298.122-2.328.427-3.315C.974 1.476 2.71 0 4.777 0z"/>
</svg>
