<svg xmlns="http://www.w3.org/2000/svg" width="21" height="20" viewBox="0 0 21 20">
    <g fill="#FFF" fill-rule="nonzero">
        <path d="M20.153 8.508L10.682.207a.696.696 0 0 0-.918 0l-9.471 8.3a.697.697 0 0 0 .918 1.048l.733-.643V19.27c0 .384.312.696.697.696H17.805a.696.696 0 0 0 .696-.696V8.912l.734.643a.694.694 0 0 0 .982-.065.696.696 0 0 0-.064-.982zM8.615 18.573v-5.736h3.216v5.736H8.615zm8.494-10.876v10.876h-3.885V12.14a.696.696 0 0 0-.697-.696H7.918a.696.696 0 0 0-.696.696v6.433H3.337V7.697v-.005l6.886-6.036 6.886 6.036v.005z"/>
        <path d="M8.663 6.56c0 .384.312.696.696.696h1.727a.696.696 0 0 0 0-1.393H9.36a.696.696 0 0 0-.696.696z"/>
    </g>
</svg>
