<svg xmlns="http://www.w3.org/2000/svg" width="22" height="24" viewBox="0 0 22 24">
    <g fill="#FFF" fill-rule="nonzero">
        <path d="M8.234 13.306H5.766a.764.764 0 0 0-.663.388.784.784 0 0 0 0 .776c.136.24.39.387.663.387h2.468v2.5a.77.77 0 0 0 .765.775.77.77 0 0 0 .766-.775v-2.5h2.47a.77.77 0 0 0 .765-.775.77.77 0 0 0-.766-.776H9.766v-2.5A.77.77 0 0 0 9 10.031a.77.77 0 0 0-.766.775v2.5z"/>
        <path d="M2 6.992v14.619h14.435V6.992H2zm16.435-2.025v18.67H0V4.966h18.435z"/>
        <path d="M20 2.941H4.565V.916H22v17.657h-2z"/>
    </g>
</svg>
