<?xml version="1.0" encoding="UTF-8"?>
<svg width="64px" height="64px" viewBox="0 0 64 64" version="1.1" xmlns="http://www.w3.org/2000/svg" xmlns:xlink="http://www.w3.org/1999/xlink">
    <!-- Generator: Sketch 52.5 (67469) - http://www.bohemiancoding.com/sketch -->
    <title>icon-check</title>
    <desc>Created with Sketch.</desc>
    <g id="v2" stroke="none" stroke-width="1" fill="none" fill-rule="evenodd">
        <g id="Mobile---Careers---Thank-you" transform="translate(-128.000000, -115.000000)" fill="#00BE66">
            <path d="M160,115 C151.511727,115 143.375052,118.371089 137.371071,124.371071 C131.371089,130.374952 128,138.512027 128,147 C128,155.487973 131.371089,163.624948 137.371071,169.628929 C143.374952,175.628911 151.512027,179 160,179 C168.487973,179 176.624948,175.628911 182.628929,169.628929 C188.628911,163.625048 192,155.487973 192,147 C192,138.512027 188.628911,130.375052 182.628929,124.371071 C176.625048,118.371089 168.487973,115 160,115 Z M156.000012,161.378855 C155.359395,162.011663 154.500017,162.371042 153.60162,162.378852 C152.671933,162.390572 151.773526,162.031193 151.109428,161.378855 L141.781357,151.929685 L146.781341,147.0195 L153.70322,154.019478 L175.203152,133.691542 L180.000037,138.699326 L156.000012,161.378855 Z" id="icon-check"></path>
        </g>
    </g>
</svg>